<?xml version="1.0" encoding="UTF-8" standalone="no"?>
<!-- Created with Inkscape (http://www.inkscape.org/) -->

<svg
   width="800mm"
   height="800mm"
   viewBox="0 0 800 800"
   version="1.1"
   id="svg1"
   inkscape:version="1.4.2 (f4327f4, 2025-05-13)"
   sodipodi:docname="map_1.svg"
   xmlns:inkscape="http://www.inkscape.org/namespaces/inkscape"
   xmlns:sodipodi="http://sodipodi.sourceforge.net/DTD/sodipodi-0.dtd"
   xmlns="http://www.w3.org/2000/svg"
   xmlns:svg="http://www.w3.org/2000/svg">
  <sodipodi:namedview
     id="namedview1"
     pagecolor="#ffffff"
     bordercolor="#000000"
     borderopacity="0.25"
     inkscape:showpageshadow="2"
     inkscape:pageopacity="0.0"
     inkscape:pagecheckerboard="0"
     inkscape:deskcolor="#d1d1d1"
     inkscape:document-units="mm"
     inkscape:zoom="0.25"
     inkscape:cx="1120"
     inkscape:cy="1370"
     inkscape:window-width="1920"
     inkscape:window-height="991"
     inkscape:window-x="-9"
     inkscape:window-y="-9"
     inkscape:window-maximized="1"
     inkscape:current-layer="layer1" />
  <defs
     id="defs1" />
  <g
     inkscape:groupmode="layer"
     id="layer1"
     inkscape:label="Левые комнаты"
     transform="matrix(0.34741829,0.06125922,-0.06125922,0.34741829,-217.14912,-138.43703)"
     inkscape:transform-center-x="262.69367"
     inkscape:transform-center-y="-140.20526"
     style="fill:#cccccc;fill-opacity:1;stroke:#000000;stroke-width:4;stroke-dasharray:none;stroke-opacity:1">
    <rect
       style="fill:#cccccc;fill-opacity:1;stroke:#000000;stroke-width:4;stroke-dasharray:none;stroke-opacity:1"
       id="115"
       width="163.125"
       height="140.25"
       x="1290.75"
       y="920.25"
       inkscape:transform-center-x="262.37226"
       inkscape:transform-center-y="-250.54389" />
    <rect
       style="fill:#cccccc;fill-opacity:1;stroke:#000000;stroke-width:4;stroke-dasharray:none;stroke-opacity:1"
       id="116"
       width="107.12668"
       height="140.80264"
       x="1459.7335"
       y="919.32727"
       inkscape:transform-center-x="123.41752"
       inkscape:transform-center-y="-226.6988" />
    <rect
       style="fill:#cccccc;fill-opacity:1;stroke:#000000;stroke-width:4;stroke-dasharray:none;stroke-opacity:1"
       id="113"
       width="163.125"
       height="140.25"
       x="1288.2208"
       y="1147.0415"
       inkscape:transform-center-x="304.24494"
       inkscape:transform-center-y="-27.637048" />
    <rect
       style="fill:#cccccc;fill-opacity:1;stroke:#000000;stroke-width:4;stroke-dasharray:none;stroke-opacity:1"
       id="112"
       width="107.12668"
       height="140.80264"
       x="1457.2043"
       y="1146.1188"
       inkscape:transform-center-x="165.2902"
       inkscape:transform-center-y="-3.7919588" />
    <rect
       style="fill:#cccccc;fill-opacity:1;stroke:#000000;stroke-width:4;stroke-dasharray:none;stroke-opacity:1"
       id="114"
       width="108.18734"
       height="141.06781"
       x="1176.8025"
       y="918.53174"
       inkscape:transform-center-x="401.4128"
       inkscape:transform-center-y="-276.39005" />
  </g>
  <g
     inkscape:groupmode="layer"
     id="layer2"
     inkscape:label="Верхние и правые комнаты"
     inkscape:transform-center-x="-247.45275"
     inkscape:transform-center-y="-570.65662"
     style="fill:#cccccc;fill-opacity:1;stroke:#000000;stroke-width:4;stroke-dasharray:none;stroke-opacity:1"
     transform="matrix(0.35277777,0,0,0.35277777,-300.05046,-42.05706)">
    <rect
       style="fill:#cccccc;fill-opacity:1;stroke:#000000;stroke-width:4;stroke-dasharray:none;stroke-opacity:1"
       id="101"
       width="141"
       height="163.125"
       x="1735.2267"
       y="604.20398"
       transform="translate(3.6482701,3.2960462)"
       inkscape:transform-center-x="-132.51958"
       inkscape:transform-center-y="-501.90683" />
    <path
       id="102/2"
       style="fill:#cccccc;fill-opacity:1;stroke:#000000;stroke-width:4;stroke-dasharray:none;stroke-opacity:1"
       d="m 1803.5862,471.65316 9e-4,0.375 -3.5625,0.009 5e-4,0.1875 -33.1874,0.0786 4e-4,0.1875 -29.0624,0.0688 0.1726,72.9373 29.0624,-0.0688 -0.046,-19.49994 33.1875,-0.0786 -5e-4,-0.1875 3.5625,-0.009 0.024,9.93747 29.8125,-0.0706 v 2.0625 l 45.8436,-0.10858 v -2.0625 l 0.094,-2.2e-4 -0.151,-63.93732 z"
       inkscape:transform-center-x="-130.98438"
       inkscape:transform-center-y="-683.81242" />
    <path
       id="102/1"
       style="fill:#cccccc;fill-opacity:1;stroke:#000000;stroke-width:4;stroke-dasharray:none;stroke-opacity:1"
       d="m 1770.9101,529.29319 0.047,20.06244 -33.1875,0.0786 0.1253,52.87486 33.1874,-0.0786 28.3125,-0.067 0.75,-0.002 3.9375,-0.009 0.75,-0.002 74.9997,-0.1776 -0.149,-62.99983 -0.1875,4.5e-4 v -1.68749 l -45.8436,0.10857 v 1.6875 l -29.7188,0.0703 0.024,9.93747 -3.9375,0.009 -0.047,-19.87494 z"
       inkscape:transform-center-x="-131.15318"
       inkscape:transform-center-y="-626.53123" />
    <path
       id="103/2"
       style="fill:#cccccc;fill-opacity:1;stroke:#000000;stroke-width:4;stroke-dasharray:none;stroke-opacity:1"
       d="m 2034.7269,470.48718 8e-4,0.375 3.5625,-0.009 5e-4,0.1875 33.1874,-0.0786 4e-4,0.1875 29.0625,-0.0688 0.1726,72.93729 -29.0625,0.0688 -0.046,-19.49995 -33.1875,0.0786 -4e-4,-0.18749 -3.5624,0.009 0.024,9.93747 -29.8124,0.0706 v 2.0625 l -45.8436,0.10857 v -2.0625 l -0.094,2.3e-4 -0.1511,-63.93732 z"
       inkscape:transform-center-x="-360.68331"
       inkscape:transform-center-y="-685.03081" />
    <path
       id="103/1"
       style="fill:#cccccc;fill-opacity:1;stroke:#000000;stroke-width:4;stroke-dasharray:none;stroke-opacity:1"
       d="m 2067.6756,527.97183 0.047,20.06244 33.1875,-0.0786 0.1252,52.87485 -33.1873,0.0786 -28.3125,0.067 -0.75,0.002 -3.9375,0.009 -0.7499,0.002 -74.9998,0.1776 -0.149,-62.99981 0.1875,-4.5e-4 v -1.68749 l 45.8436,-0.10858 v 1.6875 l 29.7187,-0.0703 0.024,9.93747 3.9375,-0.009 -0.047,-19.87494 z"
       inkscape:transform-center-x="-360.82996"
       inkscape:transform-center-y="-627.74856" />
    <path
       id="108/2"
       style="fill:#cccccc;fill-opacity:1;stroke:#000000;stroke-width:4;stroke-dasharray:none;stroke-opacity:1"
       d="m 2612.6488,1072.269 -0.375,9e-4 v -3.5625 l -0.1875,4e-4 -0.078,-33.1874 -0.1875,5e-4 -0.069,-29.0625 -72.9373,0.1726 0.069,29.0625 19.4999,-0.046 0.078,33.1873 0.1875,-4e-4 v 3.5625 l -9.9375,0.024 0.071,29.8125 h -2.0625 l 0.1087,45.8437 h 2.0625 l 2e-4,0.094 63.9373,-0.1511 z"
       inkscape:transform-center-x="-683.8174"
       inkscape:transform-center-y="130.98445" />
    <path
       id="108/1"
       style="fill:#cccccc;fill-opacity:1;stroke:#000000;stroke-width:4;stroke-dasharray:none;stroke-opacity:1"
       d="m 2555.0087,1039.5928 -20.0624,0.047 -0.078,-33.1874 -52.8749,0.1253 0.078,33.1873 0.067,28.3124 8e-4,0.75 0.014,3.9375 8e-4,0.75 0.1778,74.9999 62.9997,-0.149 -4e-4,-0.1875 h 1.6875 l -0.1087,-45.8435 h -1.6875 l -0.071,-29.7187 -9.9374,0.024 -0.014,-3.9375 19.8749,-0.047 z"
       inkscape:transform-center-x="-626.5305"
       inkscape:transform-center-y="131.1533" />
    <rect
       style="fill:#cccccc;fill-opacity:1;stroke:#000000;stroke-width:4;stroke-dasharray:none;stroke-opacity:1"
       id="106/1"
       width="92.012268"
       height="141.33296"
       x="2112.9211"
       y="1012.1292"
       transform="rotate(-0.13566438)" />
    <rect
       style="fill:#cccccc;fill-opacity:1;stroke:#000000;stroke-width:4;stroke-dasharray:none;stroke-opacity:1"
       id="106/2"
       width="90.156113"
       height="140.80264"
       x="2210.5017"
       y="1012.3941"
       transform="rotate(-0.13566438)" />
    <rect
       style="fill:#cccccc;fill-opacity:1;stroke:#000000;stroke-width:4;stroke-dasharray:none;stroke-opacity:1"
       id="107"
       width="164.25"
       height="142.875"
       x="2307.2146"
       y="1012.1723"
       transform="rotate(-0.13566438)" />
    <path
       id="109/2"
       style="fill:#cccccc;fill-opacity:1;stroke:#000000;stroke-width:4;stroke-dasharray:none;stroke-opacity:1"
       d="m 2615.9712,1305.3857 -0.3749,8e-4 v 3.5625 l -0.1875,5e-4 0.078,33.1874 -0.1875,4e-4 0.069,29.0625 -72.9373,0.1726 -0.069,-29.0625 19.5,-0.046 -0.078,-33.1875 0.1875,-4e-4 v -3.5625 l -9.9374,0.024 -0.071,-29.8124 h -2.0625 l -0.1088,-45.8436 h 2.0625 l -2e-4,-0.094 63.9373,-0.1511 z"
       inkscape:transform-center-x="-683.23549"
       inkscape:transform-center-y="-134.23116" />
    <path
       id="109/1"
       style="fill:#cccccc;fill-opacity:1;stroke:#000000;stroke-width:4.10356;stroke-dasharray:none;stroke-opacity:1"
       d="m 2559.5229,1338.5635 -21.0516,0.047 0.082,33.287 -55.4815,0.1256 -0.082,-33.287 -0.07,-28.3975 -9e-4,-0.7523 -0.015,-3.9493 -8e-4,-0.7523 -0.1866,-75.2248 66.1055,-0.1495 6e-4,0.188 h 1.7707 l 0.1142,45.9812 h -1.7708 l 0.074,29.8079 -10.4274,0.024 0.015,3.9493 20.8548,-0.047 z"
       inkscape:transform-center-x="-656.81404"
       inkscape:transform-center-y="-134.48738" />
    <path
       id="105/2"
       style="fill:#cccccc;fill-opacity:1;stroke:#000000;stroke-width:4;stroke-dasharray:none;stroke-opacity:1"
       d="m 2035.633,773.47177 9e-4,0.375 3.5625,-0.009 4e-4,0.1875 33.1874,-0.0786 4e-4,0.1875 29.0624,-0.0688 0.1726,72.9373 -29.0624,0.0688 -0.046,-19.49995 -33.1875,0.0786 -4e-4,-0.1875 -3.5625,0.009 0.024,9.93747 -29.8124,0.0706 v 2.0625 l -45.8438,0.10858 v -2.0625 l -0.094,2.2e-4 -0.151,-63.93731 z"
       inkscape:transform-center-x="-360.68315"
       inkscape:transform-center-y="-685.0308" />
    <path
       id="105/1"
       style="fill:#cccccc;fill-opacity:1;stroke:#000000;stroke-width:4;stroke-dasharray:none;stroke-opacity:1"
       d="m 2068.5817,830.95641 0.047,20.06246 33.1873,-0.0786 0.1253,52.87485 -33.1874,0.0786 -28.3125,0.067 -0.75,0.002 -3.9375,0.009 -0.75,0.002 -74.9997,0.1776 -0.1491,-62.99983 0.1875,-4.4e-4 v -1.6875 l 45.8436,-0.10857 v 1.6875 l 29.7188,-0.0704 0.024,9.93747 3.9375,-0.009 -0.047,-19.87494 z"
       inkscape:transform-center-x="-360.82975"
       inkscape:transform-center-y="-627.74856" />
    <rect
       style="fill:#cccccc;fill-opacity:1;stroke:#000000;stroke-width:4;stroke-dasharray:none;stroke-opacity:1"
       id="104"
       width="141"
       height="163.125"
       x="1959.3313"
       y="605.93213"
       inkscape:transform-center-x="-132.51958"
       inkscape:transform-center-y="-501.90683" />
    <rect
       style="fill:#cccccc;fill-opacity:1;stroke:#000000;stroke-width:4;stroke-dasharray:none;stroke-opacity:1"
       id="111/1"
       width="92.012268"
       height="141.33296"
       x="2115.4988"
       y="1235.2531"
       transform="rotate(-0.13566438)" />
    <rect
       style="fill:#cccccc;fill-opacity:1;stroke:#000000;stroke-width:4;stroke-dasharray:none;stroke-opacity:1"
       id="111/2"
       width="90.156113"
       height="140.80264"
       x="2213.0793"
       y="1235.5179"
       transform="rotate(-0.13566438)" />
    <rect
       style="fill:#cccccc;fill-opacity:1;stroke:#000000;stroke-width:4;stroke-dasharray:none;stroke-opacity:1"
       id="110"
       width="164.25"
       height="142.875"
       x="2309.7922"
       y="1235.2961"
       transform="rotate(-0.13566438)" />
  </g>
  <g
     inkscape:groupmode="layer"
     id="layer3"
     inkscape:label="Стены и нежилые комнаты"
     transform="matrix(0.35277777,0,0,0.35277777,-300.05046,-42.05706)">
    <rect
       style="fill:#d6d6d6;fill-opacity:1;stroke:none;stroke-width:10;stroke-dasharray:none"
       id="rect5"
       width="157.12914"
       height="10"
       x="1722.5978"
       y="909.51013"
       transform="rotate(-0.13566438)" />
    <rect
       style="fill:#d6d6d6;fill-opacity:1;stroke:none;stroke-width:7.5379"
       id="rect6"
       width="10"
       height="584.2912"
       x="1722.8629"
       y="335.95813"
       transform="rotate(-0.13566438)" />
    <rect
       style="fill:#d6d6d6;fill-opacity:1;stroke:none;stroke-width:2.8856"
       id="rect5-9"
       width="156.36966"
       height="9.6429958"
       x="-2112.2512"
       y="909.41095"
       transform="matrix(-0.99999739,0.00228327,0.00245546,0.99999699,0,0)" />
    <rect
       style="fill:#d6d6d6;fill-opacity:1;stroke:none;stroke-width:7.53562"
       id="rect6-4"
       width="10"
       height="583.9389"
       x="-2111.9897"
       y="335.19644"
       transform="matrix(-0.9999972,0.00236779,0.00236779,0.9999972,0,0)" />
    <rect
       style="fill:#d6d6d6;fill-opacity:1;stroke:none;stroke-width:4.29586"
       id="rect7"
       width="389.32111"
       height="10"
       x="1722.5979"
       y="334.89752"
       transform="rotate(-0.13566438)" />
    <rect
       style="fill:#d6d6d6;fill-opacity:1;stroke:none;stroke-width:3.114"
       id="rect8"
       width="10"
       height="93.75"
       x="1878.2144"
       y="337.17236"
       transform="rotate(-0.13566438)" />
    <rect
       style="fill:#d6d6d6;fill-opacity:1;stroke:none;stroke-width:2.62894"
       id="rect9"
       width="84.75"
       height="10"
       x="1879.4946"
       y="421.1503"
       transform="rotate(-0.13566438)" />
    <rect
       style="fill:#d6d6d6;fill-opacity:1;stroke:none;stroke-width:4.90938"
       id="rect10"
       width="10"
       height="45.375"
       x="1954.4492"
       y="428.05493"
       transform="rotate(-0.13566438)" />
    <rect
       style="fill:#d6d6d6;fill-opacity:1;stroke:none;stroke-width:10;stroke-dasharray:none"
       id="rect11"
       width="10"
       height="320.56067"
       x="1869.6647"
       y="778.17236"
       transform="rotate(-0.13566438)"
       sodipodi:type="rect" />
    <rect
       style="fill:#d6d6d6;fill-opacity:1;stroke:none;stroke-width:5.50934"
       id="rect11-1"
       width="9.5710087"
       height="185.35605"
       x="1956.4507"
       y="919.27844"
       sodipodi:type="rect"
       transform="matrix(0.99999707,-0.00242223,0.00231457,0.99999732,0,0)" />
    <rect
       style="fill:#d6d6d6;fill-opacity:1;stroke:none;stroke-width:4.79916"
       id="rect12"
       width="146.53792"
       height="10"
       x="1732.4264"
       y="778.17236"
       transform="rotate(-0.13566438)" />
    <rect
       style="fill:#d6d6d6;fill-opacity:1;stroke:none;stroke-width:6.69039"
       id="rect15"
       width="649.12402"
       height="10"
       x="2100.4583"
       y="998.87073"
       transform="rotate(-0.13566438)" />
    <rect
       style="fill:#d6d6d6;fill-opacity:1;stroke:none;stroke-width:2.25623"
       id="rect16"
       width="10"
       height="146.33049"
       x="2100.4316"
       y="999.24579"
       transform="rotate(-0.13566438)" />
    <rect
       style="fill:#d6d6d6;fill-opacity:1;stroke:none;stroke-width:6.69556"
       id="rect15-1"
       width="650.12909"
       height="10"
       x="-2748.8162"
       y="-1389.621"
       transform="rotate(179.86434)" />
    <rect
       style="fill:#d6d6d6;fill-opacity:1;stroke:none;stroke-width:3.68972"
       id="rect16-1"
       width="10"
       height="391.34201"
       x="-2749.8767"
       y="-1389.621"
       transform="rotate(179.86434)" />
    <rect
       style="fill:#d6d6d6;fill-opacity:1;stroke:none;stroke-width:4.30581"
       id="rect17"
       width="63.701763"
       height="10"
       x="2612.3262"
       y="1146.5426"
       transform="rotate(-0.13566438)" />
    <rect
       style="fill:#d6d6d6;fill-opacity:1;stroke:none;stroke-width:5.63422"
       id="rect18"
       width="10"
       height="86.592957"
       x="2665.7734"
       y="1155.2435"
       transform="rotate(-0.13566438)" />
    <rect
       style="fill:#d6d6d6;fill-opacity:1;stroke:none;stroke-width:5.07112"
       id="rect19"
       width="74.163345"
       height="10"
       x="2665.7734"
       y="1232.3071"
       transform="rotate(-0.13566438)" />
    <rect
       style="fill:#d6d6d6;fill-opacity:1;stroke:none;stroke-width:4.79916"
       id="rect12-4"
       width="146.53792"
       height="10"
       x="1960.2097"
       y="463.56265"
       transform="rotate(-0.13566438)" />
    <rect
       style="fill:#d6d6d6;fill-opacity:1;stroke:none;stroke-width:4.85164"
       id="rect12-4-3"
       width="149.76057"
       height="10"
       x="1731.109"
       y="464.43799"
       transform="rotate(-0.13566438)" />
    <rect
       style="fill:#d6d6d6;fill-opacity:1;stroke:none;stroke-width:4.96436"
       id="rect20"
       width="10"
       height="150.00002"
       x="2612.2712"
       y="1006.225"
       transform="rotate(-0.13566438)" />
    <rect
       style="fill:#d6d6d6;fill-opacity:1;stroke:none;stroke-width:4.96436"
       id="rect20-2"
       width="10"
       height="150.00002"
       x="2614.2485"
       y="1233.45"
       transform="rotate(-0.13566438)" />
    <rect
       style="fill:#d6d6d6;fill-opacity:1;stroke:none;stroke-width:2.25623"
       id="rect16-6"
       width="10"
       height="146.33049"
       x="2098.5574"
       y="1234.3229"
       transform="rotate(-0.13566438)" />
    <path
       style="fill:#d6d6d6;fill-opacity:1;stroke-width:0.811331"
       d="m 1959.0044,1099.5423 0.037,12.241 145.3963,28.8018 0.2964,-14.0621 -135.8365,-27.0017 z"
       id="path131319" />
    <path
       style="fill:#d6d6d6;fill-opacity:1;stroke-width:0.744789"
       d="m 1872.2236,1083.1752 -275.118,-46.6694 -1.825,9.8732 277.7352,48.0402 -0.01,-11.1752 z"
       id="path131320" />
    <path
       style="fill:#d6d6d6;fill-opacity:1;stroke-width:9.90996;stroke-dasharray:none"
       d="m 1602.309,1039.4777 25.5041,-143.52726 -532.1626,-93.47919 -69.8204,380.00145 534.6683,96.7415 24.891,-143.007 -8.0228,-1.4342 -24.2738,134.402 -515.3045,-92.8111 64.7987,-362.22976 516.9503,88.09884 -24.7111,135.91292 z"
       id="path131321" />
    <path
       style="fill:#d6d6d6;fill-opacity:1;stroke-width:9.99613;stroke-dasharray:none"
       d="m 1185.0226,1056.5767 -4.6363,-0.8238 -0.1409,-0.1117 -0.099,-0.1947 v -0.149 l 1.2305,-6.8849 0.1492,-0.1489 0.3315,-0.1325 171.7441,30.2924 0.062,0.091 0.1202,0.087 0.075,0.1366 0.029,0.12 -0.016,0.1408 -0.5453,3.0829 -0.7183,4.2036 -42.0328,-7.4107 -0.2693,1.5401 -7.4992,-1.3165 -1.6025,9.2276 -20.6016,116.8396 -2.5722,14.7925 -5.8653,-1.1624 -112.3125,-20.328 2.8858,-15.1641 0.026,-0.02 0.064,-0.026 0.02,-0.046 0.1026,-0.12 0.1172,-0.055 0.1289,-0.02 6.7412,1.1798 0.097,0.044 0.1,0.082 0.065,0.091 0.044,0.1493 0.032,0.032 0.026,0.059 -1.9013,10.7846 104.0603,18.3961 22.4846,-127.2145 -5.8359,-1.0655 -0.1406,-0.2342 -0.071,-0.1992 1.7461,-9.9767 -97.9902,-17.2145 -1.9004,10.8444 -0.1875,0.1874 -0.1406,0.082 -0.1729,0.026 -6.7178,-1.1857 -0.1377,-0.073 -0.062,-0.071 -0.076,-0.1229 -0.012,-0.094 -0.044,-0.05 -0.017,-0.046 0.015,-0.068 1.8984,-10.773 z"
       id="path131324" />
    <path
       style="fill:#bfbfbf;stroke-width:9.99998;stroke-dasharray:none"
       d="m 1310.1337,1079.0423 42.2607,7.4578 0.1988,-1.2927 -42.0736,-7.4456 -0.2168,1.3096 z"
       id="path131325" />
    <path
       style="fill:#d6d6d6;fill-opacity:1;stroke-width:9.99998;stroke-dasharray:none"
       d="m 1223.8144,983.94038 -24.2626,-4.6404 25.7209,-145.443 0.7955,-4.5078 7.3584,1.25955 -25.4559,142.9239 -0.3978,2.5191 17.5673,3.01628 -1.0127,4.89105 h -0.1435 l -0.073,0.0443 -0.068,0.012 z"
       id="path131326" />
    <path
       style="fill:#d6d6d6;fill-opacity:1;stroke-width:9.99998;stroke-dasharray:none"
       d="m 1076.3712,957.9375 84.5625,14.71875 1.125,-6.375 -84.2812,-14.85938 -1.2803,6.5127 z"
       id="path131327" />
    <path
       style="fill:#d6d6d6;fill-opacity:1;stroke-width:9.99998;stroke-dasharray:none"
       d="m 1577.0545,1135.1645 8.1328,1.4766 0.094,-0.75 204.1486,35.9356 1.8562,-10.8718 -193.1397,-34.0405 0.7404,-3.3749 -0.053,-0.076 -0.049,-0.026 -0.071,-0.015 h -0.023 l -0.012,-0.1055 -0.041,-0.067 -0.044,-0.059 -0.047,-0.053 -0.067,-0.041 -0.02,-0.015 -0.015,-0.035 -0.023,-0.02 -0.029,-0.023 -18.583,-3.2724 z"
       id="path131330" />
    <path
       style="fill:#d6d6d6;fill-opacity:1;stroke-width:9.99998;stroke-dasharray:none"
       d="m 1138.0448,968.52667 -13.1256,75.57203 26.3176,4.5741 1.1147,-6.3838 -19.9687,-3.6093 12.0703,-69.1172 z"
       id="path131334" />
    <path
       style="fill:#d6d6d6;fill-opacity:1;stroke-width:9.76661;stroke-dasharray:none"
       d="m 1789.2011,1171.8969 22.6376,4.3752 -19.0437,111.5717 14.0167,2.5985 20.772,-123.2852 -36.5488,-6.1983 -1.6124,10.9381 z"
       id="path131335" />
    <path
       style="fill:#d6d6d6;fill-opacity:1;stroke-width:9.99998;stroke-dasharray:none"
       d="m 1794.2344,875.53125 4.6875,-0.0937 -0.7969,-41.85938 h -59.2969 l -0.049,-2.85749 -3.9433,0.01 0.01,0.84375 2.9677,-0.012 0.01,21.85838 -2.9267,-0.0172 v 0.83498 h 3.6827 l 0.2929,-0.0323 0.088,-0.0465 0.2344,-0.1494 v -16.1748 l 54.5302,-0.0293 0.1963,37.377 0.064,0.123 0.076,0.082 0.094,0.0585 0.047,0.018 h 0.053 z"
       id="path131336" />
    <path
       style="fill:#d6d6d6;fill-opacity:1;stroke-width:10.0343;stroke-dasharray:none"
       d="m 1794.375,905.27335 -0.4922,0.0121 v -0.39525 l 0.053,-0.16523 0.058,-0.0766 0.1113,-0.0885 0.1348,-0.0468 0.2226,-0.0121 0.1348,-0.008 h 0.2109 l -0.01,-2.41887 0.015,-0.0415 0.032,-0.0415 0.05,-0.0181 0.073,-0.009 1.0664,-0.0324 1.7313,-0.074 0.055,0.0294 0.029,0.0416 0.015,0.0619 -0.026,2.51326 0.6445,0.008 0.085,0.0498 0.047,0.0355 0.032,0.0415 0.032,0.0468 0.041,0.0766 0.02,0.0589 0.01,0.068 -0.01,0.18879 -0.01,0.20352 z"
       id="path131337" />
    <path
       style="fill:#d6d6d6;fill-opacity:1;stroke-width:9.99998;stroke-dasharray:none"
       d="m 1831.3624,803.74838 -4.2759,0.0995 -0.261,-0.008 -0.1449,-0.066 -0.1078,-0.12435 -0.054,-0.16988 -0.043,-0.0532 -0.01,-0.0443 0.062,-19.5381 4.9014,-0.008 z"
       id="path131338" />
    <path
       style="fill:#d6d6d6;fill-opacity:1;stroke-width:9.99998;stroke-dasharray:none"
       d="m 1871.6484,849.14062 -44.2265,0.0232 -0.1571,-0.0555 -0.075,-0.0705 -0.095,-0.12427 -0.025,-0.10358 -0.01,-0.13672 -0.015,-1.67708 v -1.47945 l -0.1787,0.009 -0.1084,-0.0232 -0.091,-0.0495 -0.097,-0.082 -0.082,-0.19343 0.046,-13.59015 0.038,-0.0743 0.046,-0.0705 0.083,-0.066 0.116,-0.0788 0.3895,-0.0247 3.9316,0.0157 0.1671,0.0585 0.085,0.0735 0.068,0.082 0.046,0.13478 -0.023,12.6123 h 40.1923 v 4.89255 z"
       id="path131339" />
    <path
       style="fill:#d6d6d6;fill-opacity:1;stroke-width:9.99998;stroke-dasharray:none"
       d="m 1734.8877,853.40917 3.0029,0.009 V 831.4749 h -3.1643 v 21.94245 z"
       id="path131340" />
    <path
       style="fill:#d6d6d6;fill-opacity:1;stroke-width:9.99998;stroke-dasharray:none"
       d="m 1792.793,1287.3164 14.0334,2.6038 -6.0906,35.1759 -158.3698,-27.5773 2.5854,-13.457 143.6863,25.3232 z"
       id="path131341" />
    <path
       style="fill:#d6d6d6;fill-opacity:1;stroke-width:10.0011;stroke-dasharray:none"
       d="m 1642.6101,1297.1535 -18.7442,104.5763 45.2415,8.1501 -13.2229,74.4554 -45.5512,-8.0282 -0.2182,0.081 -0.1554,0.1728 -0.053,0.1553 -59.7655,339.1904 0.232,0.2733 0.5309,0.1326 386.4276,67.9898 0.2465,-0.02 c 0,0 0.1756,-0.167 0.1843,-0.1874 0.01,-0.02 0.1058,-0.3544 0.1116,-0.3867 0.01,-0.032 93.723,-531.2545 93.723,-531.2545 l 0.035,-0.3162 -0.2345,-0.1756 -75.5184,-13.1135 25.7386,-144.5331 120.5859,21.0787 v 18.4295 h 8.6043 v -25.1792 l -135.1606,-23.7217 -6.3515,-1.1345 -29.2045,166.6562 75.2254,13.2522 -89.0316,504.5906 -360.0869,-63.4694 55.6079,-311.5909 41.5832,7.2974 17.7659,-102.5986 -41.4776,-7.5085 15.9962,-91.0608 -13.044,-2.2781 z"
       id="path131343" />
    <path
       style="fill:#d6d6d6;fill-opacity:1;stroke-width:13.745;stroke-dasharray:none"
       d="m 2101.4912,1229.3977 v -16.0266 l 2.852,0.4315 v 15.7404 h -2.8465 z"
       id="path131344" />
    <path
       style="fill:#d6d6d6;fill-opacity:1;stroke-width:9.99998;stroke-dasharray:none"
       d="m 2111.4727,1229.3321 v -20.6397 l -0.6768,-0.043 v 20.7186 z"
       id="path131345" />
    <path
       style="fill:#d6d6d6;fill-opacity:1;stroke-width:9.99998;stroke-dasharray:none"
       d="m 1606.0313,1582.2188 92.5781,16.4062 -1.3008,7.5469 -92.9275,-16.7063 1.4568,-7.282 z"
       id="path131346" />
    <path
       style="fill:#d6d6d6;fill-opacity:1;stroke-width:9.99998;stroke-dasharray:none"
       d="m 1587.2117,1685.5216 145.9152,25.6767 0.1407,-0.038 0.1289,-0.076 0.088,-0.1142 0.014,-0.015 0.065,-0.041 0.035,-0.061 1.5006,-8.4598 -0.062,-0.051 -0.038,-0.068 -0.053,-0.1553 -0.082,-0.088 -0.2783,-0.1172 -6.6563,-1.125 -0.1581,0.055 -0.082,0.059 -0.068,0.091 -0.032,0.047 h -0.023 l -0.05,0.049 -0.035,0.167 -0.2959,1.6992 -138.9464,-24.5149 -1.3798,7.0042 z"
       id="path131347" />
    <path
       style="fill:#d6d6d6;fill-opacity:1;stroke-width:9.99998;stroke-dasharray:none"
       d="m 1705.4531,1829.3965 14.2207,-80.7246 0.055,-0.1143 0.1025,-0.1055 0.1026,-0.055 0.091,-0.023 5.0058,0.8544 0.6132,0.1326 0.041,-0.2072 0.091,-0.1491 0.1907,-0.1243 0.1408,-0.049 37.6631,6.6536 0.053,0.062 0.076,0.097 0.065,0.1 v 0.1 l -0.01,0.1289 -0.5069,2.9619 -0.4828,2.7254 0.7624,0.1824 0.232,0.2154 -0.066,0.6298 -0.1159,0.2817 -0.2652,0.2652 -0.5635,-0.066 -37.4693,-6.6535 -13.6055,74.2148 z"
       id="path131348" />
    <path
       style="fill:#d6d6d6;fill-opacity:1;stroke-width:9.99998;stroke-dasharray:none"
       d="m 1787.1094,1843.9629 16.289,-87.7676 -0.055,-0.167 -0.047,-0.067 -0.076,-0.073 -0.076,-0.053 -7.0576,-1.2393 -0.1319,0.035 -0.1055,0.062 -0.123,0.1465 -0.041,0.1377 -1.0196,5.9384 -1.7783,-0.3075 -0.1113,0.01 -0.088,0.038 -0.076,0.035 -0.1025,0.1026 -0.046,0.091 -1.04,5.8124 -0.7794,-0.1464 h -0.123 l -0.1113,0.038 -0.1436,0.1114 -0.035,0.055 -0.023,0.079 -0.2198,1.0781 3.334,0.5772 -12.5156,74.2851 z"
       id="path131349" />
    <path
       style="fill:#d6d6d6;fill-opacity:1;stroke-width:9.99998;stroke-dasharray:none"
       d="m 1738.1719,1678.5938 23.0625,-130.125 -6.211,-1.125 -0.3046,0.097 -0.071,0.091 -0.3498,1.8447 -49.9007,-8.7671 -0.07,-5e-4 -0.073,0.067 -0.015,0.1494 -0.038,0.068 -0.094,0.017 h -0.071 l -0.062,0.041 -0.018,0.064 -0.041,0.047 -0.047,0.064 -0.015,0.085 -0.02,0.067 -6.2345,35.4082 0.3047,0.3047 0.6563,0.1172 1.875,0.3281 0.917,0.17 0.2519,0.1464 0.2051,0.044 0.041,0.01 -0.05,0.249 0.055,0.1025 2.2208,0.4014 0.059,-0.035 0.053,-0.041 c 0,0 0.01,-0.085 0.012,-0.097 0,-0.012 0.035,-0.1669 0.035,-0.1669 l 0.023,-0.1143 0.012,-0.068 0.1552,-0.053 0.1846,-0.1934 0.7412,-3.9492 -2.1474,-0.3926 4.7717,-27.306 45.5662,8.0463 -4.7784,27.6533 -21.75,-3.9375 -0.7441,3.8613 22.2103,3.8531 -8.7982,50.1176 -22.3256,-4.012 -0.5967,3.3974 14.9887,2.7591 -5.2266,28.2422 -38.9468,-6.9873 5.0382,-28.7704 2.287,0.3646 0.4309,-2.9168 -5.7839,-0.9944 -6.3906,35.3785 50.5371,8.6602 -1.1981,6.7735 z"
       id="path131350" />
    <path
       style="fill:#d6d6d6;fill-opacity:1;stroke-width:9.99998;stroke-dasharray:none"
       d="m 1705.6078,1507.5296 60.9469,10.7751 22.9116,-130.4641 -6.0307,-1.0847 -22.0606,124.3769 -54.7969,-9.8203 z"
       id="path131351" />
    <path
       style="fill:#d6d6d6;fill-opacity:1;stroke-width:9.99998;stroke-dasharray:none"
       d="m 1760.0011,1517.0597 -0.2227,1.33 0.023,0.05 0.023,0.023 0.012,0.015 0.01,0.049 0.032,0.091 0.023,0.044 0.041,0.047 0.038,0.044 0.088,0.053 0.088,0.032 0.17,0.035 5.9589,1.0488 0.3047,-1.8369 z"
       id="path131352" />
    <path
       style="fill:#d6d6d6;fill-opacity:1;stroke-width:9.99998;stroke-dasharray:none"
       d="m 1802.0508,1726.2715 -0.9023,-0.1611 -0.1319,-0.071 -0.094,-0.1113 -0.055,-0.1319 -0.012,-0.1201 1.5645,-8.8505 0.032,-0.064 0.044,-0.059 0.015,-0.038 0.012,-0.053 0.035,-0.026 0.053,-0.02 h 0.058 0.032 l 0.064,-0.023 0.014,-0.035 0.023,-0.071 0.049,-0.055 0.055,-0.012 0.091,0.014 0.094,0.012 0.073,0.015 0.059,-0.035 0.1,-0.055 0.085,-0.029 0.029,0.01 91.9893,16.2068 0.095,0.037 0.091,0.095 0.025,0.025 0.05,0.083 0.021,0.087 0.01,0.1035 -0.049,0.3149 -0.062,0.319 -0.1096,0.3711 -0.088,0.053 -0.1435,0.035 -0.1611,0.01 -0.1143,-0.029 -0.5449,-0.094 -0.8789,5.0332 -0.059,0.2374 -0.053,0.079 -0.079,0.058 -0.1,0.053 -0.1114,0.026 -26.0009,-4.5673 -10.1954,57.7969 25.9541,4.5673 0.1055,0.055 0.1025,0.1 0.064,0.1172 0.017,0.1699 -0.014,0.1055 -0.017,0.1 -0.9639,5.4609 -0.076,0.1289 -0.12,0.091 -0.1,0.035 h -0.062 l -26.0648,-4.5918 -1.9284,9.7246 -58.6435,-10.3828 1.4531,-8.1094 50.6749,9.4637 11.2944,-66.3493 -49.7818,-8.0598 -0.2579,1.4298 -0.076,0.3984 -0.05,0.076 -0.055,0.053 -0.065,0.062 -0.097,0.041 -0.1,0.023 -0.1376,-0.014 -5.8887,-1.0401 z"
       id="path131353" />
    <path
       style="fill:#d6d6d6;fill-opacity:1;stroke-width:9.99998;stroke-dasharray:none"
       d="m 1950.4219,1742.8125 -28.125,-4.9219 -1.2188,6.2344 28.3594,5.0625 z"
       id="path131354" />
    <path
       style="fill:#d6d6d6;fill-opacity:1;stroke-width:9.99998;stroke-dasharray:none"
       d="m 1937.6719,1813.5469 -27.1406,-4.875 1.2656,-6.2344 27.375,4.5938 z"
       id="path131355" />
    <path
       style="fill:#d6d6d6;fill-opacity:1;stroke-width:9.99998;stroke-dasharray:none"
       d="m 1815.75,1646.4375 7.6243,-45.139 0.09,-0.078 0.055,-0.059 0.071,-0.044 0.085,-0.041 0.073,-0.01 0.2812,0.041 5.5899,0.9844 0.164,0.126 0.046,0.073 0.038,0.079 0.02,0.088 -0.01,0.1055 -7.922,44.8096 -0.094,0.094 -0.1407,0.1055 -0.1992,0.1054 -5.8242,-1.0019 z"
       id="path131356" />
    <path
       style="fill:#d6d6d6;fill-opacity:1;stroke-width:10.0798;stroke-dasharray:none"
       d="m 1835.6713,1530.6983 1.044,-6.0656 0.1159,-0.1211 0.1667,-0.094 0.2143,-0.035 17.086,2.9882 0.071,0.1289 0.1311,0.1055 0.083,0.1758 -0.047,0.5156 -0.9049,5.086 -0.1221,0.205 -0.1016,0.1084 -0.1162,0.073 -0.128,0.035 -0.063,0.05 -17.2168,-3.0557 -0.068,-0.038 -0.054,-0.049 -0.042,-0.038 -0.02,-0.046 -0.015,-0.026 z"
       id="path131357" />
    <path
       style="fill:#d6d6d6;fill-opacity:1;stroke-width:10.8634;stroke-dasharray:none"
       d="m 1967.948,1554.3392 1.0605,-6.9358 0.1177,-0.1385 0.1694,-0.1076 0.2176,-0.039 17.3556,3.4168 0.072,0.1475 0.1331,0.1206 0.084,0.2011 -0.048,0.5895 -0.9192,5.8159 -0.124,0.2343 -0.1032,0.124 -0.1181,0.083 -0.1301,0.04 -0.064,0.057 -17.4884,-3.4941 -0.069,-0.044 -0.055,-0.056 -0.042,-0.044 -0.02,-0.053 -0.016,-0.031 z"
       id="path131357-8" />
    <path
       style="fill:#d6d6d6;fill-opacity:1;stroke-width:10.8634;stroke-dasharray:none"
       d="m 1952.3819,1651.0196 1.0605,-6.9358 0.1177,-0.1385 0.1694,-0.1076 0.2176,-0.039 17.3556,3.4168 0.072,0.1475 0.1331,0.1206 0.084,0.2011 -0.048,0.5895 -0.9192,5.8159 -0.124,0.2343 -0.1032,0.124 -0.1181,0.083 -0.1301,0.04 -0.064,0.057 -17.4884,-3.4941 -0.069,-0.044 -0.055,-0.056 -0.042,-0.044 -0.02,-0.053 -0.016,-0.031 z"
       id="path131357-8-2" />
    <path
       style="fill:#d6d6d6;fill-opacity:1;stroke-width:9.76775;stroke-dasharray:none"
       d="m 1930.3111,1185.4464 0.1113,-0.022 0.094,-0.056 0.1054,-0.098 0.071,-0.193 0.074,-0.4165 1.1132,-6.0403 -0.012,-0.09 -0.038,-0.1034 -0.091,-0.109 -0.1202,-0.064 -34.2627,-5.7776 h -0.1113 l -0.1435,0.044 -0.079,0.059 -0.071,0.059 -0.044,0.1062 -0.029,0.123 -0.1552,-0.022 -0.094,0.01 -0.1172,0.056 -0.1406,0.1369 -0.046,0.1314 -30.2696,164.1338 0.071,0.1397 0.064,0.056 0.015,0.019 -0.047,0.2041 0.017,0.1929 0.094,0.1481 c 0,0 0.064,0.068 0.082,0.073 0.017,0.01 0.4629,0.093 0.4629,0.093 l 80.1797,13.4923 0.1377,-0.707 1.1074,-5.9259 -74.0508,-12.4331 27.5649,-151.7638 z"
       id="path131358" />
    <path
       style="fill:#d6d6d6;fill-opacity:1;stroke-width:9.99998;stroke-dasharray:none"
       d="m 1866.2285,1456.541 -0.123,0.2461 -0.2168,0.1 -6.8497,-1.1969 5.836,-33.971 102.9375,17.8125 -1.2989,7.7064 33.7092,5.9828 -1.2384,7.4162 -40.3008,-7.0429 -0.085,-0.05 -0.02,-0.062 0.01,-0.05 0.01,-0.049 0.01,-0.053 -0.1348,-0.02 -0.05,-0.035 -0.023,-0.038 -0.01,-0.055 0.01,-0.055 1.4121,-7.9952 -88.8691,-15.6621 z"
       id="path131360" />
  </g>
</svg>
